<svg width="28" height="28" viewBox="0 0 28 28" fill="none" xmlns="http://www.w3.org/2000/svg">
<path d="M12.265 7.0889L8.20545 2.40318C7.73745 1.86322 6.87945 1.86562 6.33586 2.41038L2.99747 5.75458C2.00388 6.74932 1.71948 8.22644 2.29428 9.41076C5.7282 16.5203 11.4623 22.2621 18.5674 25.7058C19.7506 26.2806 21.2266 25.9962 22.2202 25.0014L25.5898 21.626C26.1357 21.0801 26.1369 20.2173 25.5922 19.7493L20.8882 15.7116C20.3962 15.2892 19.6318 15.3444 19.1386 15.8388L17.5018 17.4779C17.418 17.5657 17.3077 17.6236 17.1878 17.6427C17.0679 17.6617 16.9451 17.6409 16.8382 17.5835C14.1627 16.0429 11.9434 13.8208 10.4062 11.1435C10.3487 11.0364 10.3278 10.9133 10.3469 10.7933C10.366 10.6732 10.4239 10.5627 10.5118 10.4787L12.1438 8.8456C12.6382 8.34883 12.6922 7.58087 12.265 7.0877V7.0889Z" stroke="white" stroke-width="3" stroke-linecap="round" stroke-linejoin="round"/>
</svg>
