<svg width="22" height="23" viewBox="0 0 22 23" fill="none" xmlns="http://www.w3.org/2000/svg">
<path d="M2.44444 0H4.88889V3.63158H2.44444V0ZM7.33333 0H9.77778V3.63158H7.33333V0ZM12.2222 0H14.6667V3.63158H12.2222V0ZM19.5556 8.47368H17.1111V6.05263H0V19.3684C0 21.3706 1.64511 23 3.66667 23H13.4444C15.466 23 17.1111 21.3706 17.1111 19.3684H19.5556C20.9037 19.3684 22 18.2826 22 16.9474V10.8947C22 9.55953 20.9037 8.47368 19.5556 8.47368ZM14.6667 19.3684C14.6667 19.6895 14.5379 19.9974 14.3087 20.2244C14.0795 20.4514 13.7686 20.5789 13.4444 20.5789H3.66667C3.34251 20.5789 3.03164 20.4514 2.80243 20.2244C2.57321 19.9974 2.44444 19.6895 2.44444 19.3684V8.47368H14.6667V19.3684ZM17.1111 16.9474V10.8947H19.5556L19.558 16.9474H17.1111Z" fill="white"/>
</svg>
